<svg width="18" height="19" viewBox="0 0 18 19" fill="none" xmlns="http://www.w3.org/2000/svg">
<path d="M15.75 3.875H2.25C2.10082 3.875 1.95774 3.93426 1.85225 4.03975C1.74676 4.14524 1.6875 4.28832 1.6875 4.4375V14C1.6875 14.2984 1.80603 14.5845 2.017 14.7955C2.22798 15.0065 2.51413 15.125 2.8125 15.125H15.1875C15.4859 15.125 15.772 15.0065 15.983 14.7955C16.194 14.5845 16.3125 14.2984 16.3125 14V4.4375C16.3125 4.28832 16.2532 4.14524 16.1477 4.03975C16.0423 3.93426 15.8992 3.875 15.75 3.875ZM9 9.86211L3.69633 5H14.3037L9 9.86211ZM6.94055 9.5L2.8125 13.2835V5.71648L6.94055 9.5ZM7.77305 10.2629L8.6168 11.0398C8.72057 11.1351 8.85632 11.188 8.99719 11.188C9.13806 11.188 9.2738 11.1351 9.37758 11.0398L10.2213 10.2629L14.2995 14H3.69633L7.77305 10.2629ZM11.0595 9.5L15.1875 5.71578V13.2842L11.0595 9.5Z" fill="#2E323A"/>
</svg>
