<svg width="18" height="19" viewBox="0 0 18 19" fill="none" xmlns="http://www.w3.org/2000/svg">
<path d="M13.1894 10.6841L10.9394 9.55906C10.8508 9.51493 10.7521 9.49494 10.6534 9.50111C10.5546 9.50728 10.4592 9.5394 10.3769 9.59422L9.34396 10.2833C8.86981 10.0226 8.47962 9.63243 8.21896 9.15828L8.90802 8.12539C8.96284 8.04301 8.99496 7.94762 9.00113 7.84886C9.0073 7.7501 8.98731 7.65146 8.94318 7.56289L7.81818 5.31289C7.77155 5.21872 7.69947 5.1395 7.61012 5.0842C7.52077 5.02889 7.41771 4.99973 7.31263 5C6.56671 5 5.85134 5.29632 5.32389 5.82376C4.79645 6.35121 4.50013 7.06658 4.50013 7.8125C4.50199 9.45296 5.15448 11.0257 6.31446 12.1857C7.47444 13.3456 9.04718 13.9981 10.6876 14C11.057 14 11.4227 13.9273 11.7639 13.7859C12.1052 13.6446 12.4152 13.4374 12.6764 13.1762C12.9375 12.9151 13.1447 12.605 13.286 12.2638C13.4274 11.9226 13.5001 11.5568 13.5001 11.1875C13.5002 11.083 13.4712 10.9805 13.4163 10.8916C13.3614 10.8027 13.2828 10.7308 13.1894 10.6841ZM10.6876 12.875C9.34543 12.8735 8.05863 12.3397 7.10955 11.3906C6.16047 10.4415 5.62662 9.1547 5.62513 7.8125C5.62502 7.42235 5.76011 7.04421 6.00739 6.74244C6.25468 6.44067 6.5989 6.23391 6.98146 6.15734L7.78865 7.77453L7.10169 8.79688C7.05036 8.87388 7.01882 8.96236 7.00986 9.05447C7.00091 9.14658 7.01482 9.23947 7.05037 9.32492C7.45282 10.2814 8.21377 11.0424 9.17029 11.4448C9.25599 11.482 9.34959 11.4972 9.44264 11.4891C9.53569 11.481 9.62526 11.4498 9.70326 11.3984L10.7305 10.7136L12.3477 11.5208C12.2705 11.9038 12.0629 12.2482 11.7601 12.4951C11.4574 12.7421 11.0783 12.8763 10.6876 12.875ZM9.00013 2.1875C7.73765 2.18722 6.4966 2.51381 5.39778 3.13547C4.29896 3.75714 3.37981 4.65269 2.72978 5.73498C2.07976 6.81726 1.72102 8.0494 1.68847 9.31146C1.65592 10.5735 1.95067 11.8225 2.54404 12.9369L1.74599 15.331C1.67989 15.5292 1.67029 15.742 1.71829 15.9453C1.76628 16.1487 1.86996 16.3347 2.01771 16.4824C2.16547 16.6302 2.35145 16.7339 2.55481 16.7818C2.75818 16.8298 2.97089 16.8202 3.16912 16.7541L5.56326 15.9561C6.54395 16.4777 7.63059 16.769 8.7407 16.808C9.8508 16.847 10.9552 16.6325 11.97 16.1809C12.9849 15.7293 13.8835 15.0525 14.5977 14.2017C15.3119 13.351 15.8229 12.3487 16.0919 11.271C16.361 10.1933 16.3809 9.06842 16.1503 7.98184C15.9197 6.89525 15.4446 5.87549 14.761 4.99994C14.0774 4.1244 13.2034 3.41608 12.2052 2.92877C11.207 2.44146 10.1109 2.18796 9.00013 2.1875ZM9.00013 15.6875C7.91238 15.6882 6.84372 15.4018 5.90216 14.8571C5.83323 14.8171 5.75658 14.7923 5.6773 14.7841C5.59803 14.776 5.51793 14.7848 5.44232 14.81L2.81263 15.6875L3.68943 13.0578C3.7147 12.9823 3.72364 12.9022 3.71564 12.8229C3.70763 12.7436 3.68288 12.667 3.64302 12.598C2.96097 11.4188 2.68713 10.0474 2.86398 8.69672C3.04083 7.346 3.65849 6.0914 4.62113 5.12754C5.58378 4.16368 6.8376 3.54444 8.18809 3.36588C9.53858 3.18733 10.9103 3.45944 12.0903 4.14C13.2704 4.82056 14.1929 5.87153 14.7147 7.12987C15.2365 8.38822 15.3284 9.78359 14.9763 11.0995C14.6241 12.4155 13.8476 13.5784 12.767 14.408C11.6865 15.2375 10.3624 15.6873 9.00013 15.6875Z" fill="#2E323A"/>
</svg>
